<svg xmlns="http://www.w3.org/2000/svg" xmlns:xlink="http://www.w3.org/1999/xlink" version="1.1" id="Layer_1" x="0px" y="0px" style="enable-background:new 0 0 4000 4000;" xml:space="preserve" viewBox="974.05 710.1 2051.76 2575.7"><style type="text/css">	.st1{fill:#EC1C24;}	.st2{fill:#00B4F1;}	.st3{fill:#FFFFFF;}	.st4{fill:#F99B28;}	.st5{opacity:0.3;}	.st6{fill:#102770;}	.st7{opacity:0.6;}	.st8{fill:#ED2E7A;}	.st9{fill:#F9A528;}	.st10{fill:#F98628;}	.st11{fill:#6B184E;}</style><g>	<g>		<g>			<g>				<g>					<g>						<path class="st1" d="M2805.9,2321.6c-154.7,42.8-240.8-61.9-227.7-115.9c3.5-14.6,60.1-55.3,70.4-60.2        c-5.4-5.2-10.3-11.5-14.4-19c-0.4-0.8-0.9-1.7-1.3-2.6c-12-23.4-10.9-45.9-0.9-66.5c28.9-59.1,131.9-101.7,212.5-99.2        c0.9,0,1.7,0.1,2.4,0.1c107.8,2.9,148.7-21.7,148.7-21.7S3004.5,2266.6,2805.9,2321.6z"></path>					</g>				</g>			</g>		</g>		<g>			<g>				<g>					<g>						<path class="st2" d="M2650.1,2144.9c-0.5,0.2-1,0.4-1.5,0.7L2650.1,2144.9z"></path>					</g>				</g>			</g>		</g>		<g>			<g>				<g>					<g>						<path class="st1" d="M2847,1958.3c-0.8,0-1.6-0.1-2.4-0.1c-80.6-2.4-183.6,40.1-212.5,99.2c-11.1-8.6-24.9-14.1-39.9-15.1        c-1.5-0.1-3.1-0.1-4.6-0.1c-7,0-13.8,1-20.3,2.9c-2.6-0.7-5.3-1.8-8-3.2c-67.5-126.2,9.2-251.8,112.5-272.1        c101.7-20,160.8-65,160.8-65S2875.8,1843.3,2847,1958.3z"></path>					</g>				</g>			</g>		</g>		<g>			<g>				<g>					<g>						<path class="st1" d="M2648.6,2145.6c-10.3,4.8-17.9,16.4-21.4,31c-11.4,7.4-25.1,11.7-39.6,11.7c-17.8,0-34.1-6.4-46.7-16.9        c-0.6-31.1-5.7-62.3-16.1-93.3c7.8-13,19.4-23.4,33.4-29.5c2.9-1.3,6-2.4,9.1-3.3c9.1,2.6,17.2,1.4,24.9-2.7        c15,1,28.8,6.4,39.9,15.1c-10.1,20.6-11.1,43.2,0.9,66.5c0.4,0.9,0.8,1.7,1.3,2.6C2638.3,2134.1,2643.1,2140.4,2648.6,2145.6z        "></path>					</g>				</g>			</g>		</g>		<g>			<g>				<g>					<g>						<path class="st3" d="M2263.4,2006.6c-155.8-193.3-370.9-133.3-429.5-153.7c-58.6-20.4-128.1-36.3-154.8-242.9        c-26.7-206.6-83.8-173.3-83.8-173.3c-100.4,0-86.2,113.3-86.2,113.3v280.9h-126.7c0,0-47.7-1.7-95.4,22.1        c-156.2,0-227.4,63.4-229.6,65.4c0,0.1,0,0.1,0,0.1c-24.5,58.8-178.4,333.1,106.2,551.1h0.1c1.6,1.2,3.2,2.5,4.9,3.8h0.1        c4.5,3.4,9.1,6.7,13.8,10.1c310,220,350,240,465,240s445-115,655-300c36.5-32.2,67.5-62.3,93.4-90.9v0        C2398.4,2301.5,2398.6,2174.3,2263.4,2006.6z M1429.2,2148.3c-1.3,0-2.7-0.1-4.1-0.1c-70.2-2.7-180.1-73.2-199.2-154.9        c-20-85,69.3-128.4,181.7-128.4c112.3,0,216.7,41.1,216.7,126.6C1624.2,2077.2,1525.9,2148.3,1429.2,2148.3z M2052.5,2334.5        c-79.8,8.6-116.6-112.8-217.5-110.7c41.6-51.9,66.6-115.1,81-164.8c20,5.9,137.5,43.5,182.8,118        C2133.8,2234.5,2098.8,2329.5,2052.5,2334.5z"></path>					</g>				</g>			</g>		</g>		<g>			<g>				<g>					<g>						<path class="st4" d="M2505.1,2032.4c-3.8-23.8-9.8-48.3-17.6-74.2c-50-165-55-570-70-675s-69.8-554.8-330-555        c0,0-205,0-165,460c0,0-152.8-28-324.5,2.2c-51.7,9.1-105.2,23.5-156.7,45.6c-69.6,29.8-135.6,73.6-188.9,137.2        c0,0-11.2,10-26.2,31.3c-21.7,30.8-51.1,85.1-65.7,167c-3.9,21.9-6.8,45.8-8.2,71.7c-10,190-69.9,215-94.9,275        c2.2-2,73.3-65.4,229.5-65.4c47.8-23.8,95.4-22.1,95.4-22.1h126.7v-280.8c0,0-14.2-113.3,86.2-113.3c0,0,57-33.3,83.8,173.3        c26.6,206.7,96.2,222.6,154.7,243c58.6,20.4,273.7-39.6,429.4,153.7c135.2,167.7,134.9,294.9,132.6,325.7        C2495.7,2222.3,2521,2134.4,2505.1,2032.4z M2067.5,1236.6c0,0-15-331.7,75-323.3c90,8.3,146.7,508.3,146.7,508.3        C2210.9,1289.9,2067.5,1236.6,2067.5,1236.6z"></path>					</g>				</g>			</g>		</g>		<g class="st5">			<g>				<g>					<g>						<path class="st6" d="M2344.1,1497.5c-166.2-255.6-327.6-257.9-327.6-257.9s-37.5-388,111-387.1        C2322.4,853.7,2344.1,1497.5,2344.1,1497.5z"></path>					</g>				</g>			</g>		</g>		<g>			<g>				<g>					<g>						<path class="st4" d="M1598.1,1190.5c-51.8,9.1-105.2,23.5-156.7,45.6c-29.2-44.1-151.4-246.1-220.5-206.2        c-67.7,39.2-17.6,308.1,5.4,374.6c-21.6,30.8-51,85.1-65.6,167c0,0-228.2-548.3-26.5-718.3        C1320.1,696.6,1552.6,1112.6,1598.1,1190.5z"></path>					</g>				</g>			</g>		</g>		<g class="st7">			<g>				<g>					<g>						<g>							<path class="st3" d="M1169.2,888.3c80.4-67.8,169.5-28.4,248.4,44.4c-86.8-93.5-190.9-157.5-283.4-79.4         c-201.7,170,26.5,718.3,26.5,718.3c2.3-13.1,5.1-25.4,8.1-37.1C1115.1,1380,1012.7,1020.2,1169.2,888.3z"></path>						</g>					</g>				</g>			</g>			<g>				<g>					<g>						<g>							<path class="st3" d="M1335.7,1089.5c47,52.9,89.9,122.7,105.7,146.6c3.2-1.4,6.4-2.6,9.6-3.9         C1422.4,1188.8,1378.4,1126.2,1335.7,1089.5z"></path>						</g>					</g>				</g>			</g>		</g>		<g class="st5">			<g>				<g>					<g>						<path class="st6" d="M1509.2,1211.4c-92.2,39.4-286.2,141.1-332.1,295.9c-30.6-88.2-134.5-479.7,0.7-550        C1271.6,908.5,1439.9,1057.5,1509.2,1211.4z"></path>					</g>				</g>			</g>		</g>		<g>			<g>				<g>					<g>						<path class="st2" d="M1604,1200.7c0,0-2.1-3.7-5.9-10.2L1604,1200.7z"></path>					</g>				</g>			</g>		</g>		<g>			<g>				<g>					<g>						<path class="st2" d="M1934.2,1974.9c0,0-4.1,35.7-18.2,84.2L1934.2,1974.9z"></path>					</g>				</g>			</g>		</g>		<g>			<g>				<g>					<g>						<path class="st8" d="M2052.5,2334.5c-79.8,8.6-116.6-112.8-217.5-110.7c41.6-51.9,66.6-115.1,81-164.8        c20,5.9,137.5,43.5,182.8,118C2133.8,2234.5,2098.8,2329.5,2052.5,2334.5z"></path>					</g>				</g>			</g>		</g>		<g>			<g>				<g>					<g>						<path class="st2" d="M1835,2223.9c-1.8,0-3.8,0.1-5.6,0.2L1835,2223.9z"></path>					</g>				</g>			</g>		</g>		<g>			<g>				<g>					<g>						<path class="st2" d="M1916,2059.1c-1.9-0.6-2.9-0.9-2.9-0.9L1916,2059.1z"></path>					</g>				</g>			</g>		</g>		<g>			<g>				<g>					<g>						<path class="st8" d="M2289.2,1421.6c-78.3-131.7-221.7-185-221.7-185s-15-331.7,75-323.3        C2232.5,921.6,2289.2,1421.6,2289.2,1421.6z"></path>					</g>				</g>			</g>		</g>		<g>			<g>				<g>					<g>						<path class="st8" d="M1441.4,1236.1c-69.5,29.7-135.6,73.5-188.8,137.2c0,0-11.2,10-26.2,31.3c-23-66.5-73.1-335.5-5.4-374.6        C1289.9,990,1412.1,1192,1441.4,1236.1z"></path>					</g>				</g>			</g>		</g>		<g>			<g>				<g>					<g>						<path class="st2" d="M1230.2,1415.7c0,0-1.4-3.9-3.9-11.2L1230.2,1415.7z"></path>					</g>				</g>			</g>		</g>		<g>			<g>				<g>					<g>						<path class="st2" d="M1445.2,1242c0,0-1.3-2.1-3.8-5.9L1445.2,1242z"></path>					</g>				</g>			</g>		</g>		<g>			<g>				<g>					<g>						<path class="st2" d="M1159,2459.5c2.9,4.1,6.2,8.7,9.8,13.7h0L1159,2459.5z"></path>					</g>				</g>			</g>		</g>		<g>			<g>				<g>					<g>						<path class="st2" d="M1466.8,2767.9c65.4,40.4,101.4,49.2,132.4,92.1L1466.8,2767.9z"></path>					</g>				</g>			</g>		</g>		<g>			<g>				<g>					<g>						<path class="st1" d="M2540.8,2171.4c-0.1,12.6-0.9,25.5-2.3,38.5c-5.5,49.2-20.7,100.6-43.6,146.4c0,0.1-0.1,0.1-0.1,0.1        c-166.8,334.5-736.3,620.2-862.3,620.2c-97.9,0-151.8-160.7-165.7-208.7c-1.2-0.7-2.4-1.5-3.6-2.3        c-25.4-15.8-55.2-36.6-90.7-65.7c-24.2-19.8-47.5-41.7-69.3-64.2c-58.4-60-106.7-124-134.4-162.6c4.5,3.4,9.1,6.7,13.8,10.1        c310,220,350,240,465,240s445-115,655-300c36.5-32.2,67.5-62.3,93.4-90.9v0c99.7-110,125-198,109.1-299.9        c7.4,14.7,15.1,31.5,19.7,45.7C2535.1,2109.1,2540.3,2140.3,2540.8,2171.4z"></path>					</g>				</g>			</g>		</g>		<g>			<g>				<g>					<g>						<g>							<path class="st3" d="M1680,2906.2c-3.1-1.5-6.3-2.7-9.3-4.5c-4.2-2.5-8.6-3.7-13.5-3.3c-7.2,0.6-13.9-0.9-19.9-5.2         c-9.7-7.1-10.5-19-1.7-27.2c2.2-2.1,4.9-3.7,7.6-5.1c5.3-2.8,10.1-6.1,14.4-10.4c5.7-5.7,12.6-7.6,20.3-5.6         c7.8,2,12.9,7.2,14.9,15c1.4,5.5,3.7,10.4,7.4,14.7c3.2,3.7,5.1,8.1,5.7,13c0.9,8.6-3.9,15.7-12.2,18.2         c-4.2,1.2-8.8,1.2-13.6,0C1680.1,2905.9,1680,2906.1,1680,2906.2z"></path>						</g>					</g>				</g>			</g>			<g>				<g>					<g>						<g>							<path class="st3" d="M1682.4,2809c-0.9,4.5-2.3,8.9-5.4,12.4c-1.6,1.8-3.5,3.6-5.6,4.8c-7,4.1-14.9,1.2-18.2-6.6         c-2.9-7-2.5-14,1.6-20.5c3.8-5.9,9-10.2,15.5-12.7c1.7-0.7,3.5-1,5.3-1.2c3.6-0.3,6.1,1.6,7.3,5c1.2,3.5,1,7.2,0.6,10.8         C1683.3,2803.7,1682.8,2806.3,1682.4,2809z"></path>						</g>					</g>				</g>			</g>			<g>				<g>					<g>						<g>							<path class="st3" d="M1689.8,2810.8c1.8-4.2,3.4-8.4,5.3-12.5c0.8-1.8,2.3-3.3,3.7-4.7c2.3-2.2,5-2.4,7.9-0.9         c3.4,1.8,5.7,4.6,7.6,7.9c3.3,5.6,5.5,11.6,4.8,18.2c-0.7,6.8-3.8,12.5-9.7,16.2c-7.3,4.7-15.7,1.8-19.2-6.5         c-1.7-4.2-2-8.5-1.2-12.8c0.3-1.6,0.7-3.1,1.1-4.6C1690,2810.9,1689.9,2810.9,1689.8,2810.8z"></path>						</g>					</g>				</g>			</g>			<g>				<g>					<g>						<g>							<path class="st3" d="M1736.3,2855.6c-2,8.1-6.6,13.6-14.3,15.9c-8.5,2.6-15.6-3.1-15.3-12c0.1-3.5,1.1-6.8,3-9.8         c3.2-5,7.2-9.3,12.2-12.6c1.4-0.9,3-1.6,4.6-2c3.2-0.9,5.9,0.3,7.6,3.1c2.5,4,2.9,8.5,2.7,13         C1736.7,2852.8,1736.4,2854.4,1736.3,2855.6z"></path>						</g>					</g>				</g>			</g>			<g>				<g>					<g>						<g>							<path class="st3" d="M1646.7,2840.9c-1.1,2-1.9,4.2-3.2,6c-3.9,5.3-10.7,6.2-16,2.2c-6.4-4.9-9.1-13.7-6.8-21.8         c1.3-4.3,3.2-8.3,6.4-11.6c0.9-1,2-1.9,3.2-2.7c3.2-2.1,6.3-1.7,9,0.9c0.8,0.7,1.5,1.5,2,2.4c3.8,6.5,5.8,13.4,5.6,20.9         c0,1.2-0.3,2.4-0.5,3.6C1646.5,2840.8,1646.6,2840.8,1646.7,2840.9z"></path>						</g>					</g>				</g>			</g>		</g>		<g>			<g>				<g>					<g>						<path class="st2" d="M2505.1,2032.4c-0.9-1.9-1.9-3.7-2.8-5.5L2505.1,2032.4z"></path>					</g>				</g>			</g>		</g>		<g>			<g>				<g>					<g>						<path class="st2" d="M1466.8,2767.9c-2.4-8.4-3.7-13.4-3.7-13.4L1466.8,2767.9z"></path>					</g>				</g>			</g>		</g>		<g>			<g>				<g>					<g>						<path class="st2" d="M2540.8,2163.2c0.1,2.7,0.1,5.4,0,8.1V2163.2z"></path>					</g>				</g>			</g>		</g>		<g>			<g>				<g>					<g>						<path class="st2" d="M2517.2,2321.6c0,0-7.1,12.9-22.2,34.7L2517.2,2321.6z"></path>					</g>				</g>			</g>		</g>		<g>			<g>				<g>					<g>						<path class="st2" d="M2283.8,3254.7c-11.6-8.8-35.7-34.8-6.2-83.9c37.5-62.5,209.3-132.5,327.5,30L2283.8,3254.7z"></path>					</g>				</g>			</g>		</g>		<g>			<g>				<g>					<g>						<path class="st2" d="M2538.5,2209.9c-2.2-2.8-3.3-4.2-3.3-4.2L2538.5,2209.9z"></path>					</g>				</g>			</g>		</g>		<g>			<g>				<g>					<g>						<path class="st2" d="M2378.9,3106.5c-41.1-51.7-63-99.5-71.7-143.1L2378.9,3106.5z"></path>					</g>				</g>			</g>		</g>		<g>			<g>				<g>					<g>						<path class="st2" d="M2450,2683.3c0,0-58.5,34.6-101.8,97.2L2450,2683.3z"></path>					</g>				</g>			</g>		</g>		<g>			<g>				<g>					<g>						<path class="st2" d="M1992.5,3005.3v-14.6V3005.3z"></path>					</g>				</g>			</g>		</g>		<g>			<g>				<g>					<g>						<path class="st2" d="M2307.3,2963.5c-32.1,130.6-70.6,258-105.5,291.2L2307.3,2963.5z"></path>					</g>				</g>			</g>		</g>		<g>			<g>				<g>					<g>						<path class="st2" d="M2376.4,2635.8c0,0-10.8,60.9-28.2,144.7L2376.4,2635.8z"></path>					</g>				</g>			</g>		</g>		<g>			<g>				<g>					<g>						<path class="st4" d="M2944.6,2697.8c-24.4-68.1-60.4-130.5-100.1-178.3c-18.5-22.2-37.8-41.3-57-56.2        c-121.8-94.7-229.2-228.2-249-253.4c-5.5,49.2-20.7,100.6-43.6,146.4c0,0.1-0.1,0.1-0.1,0.1        c-166.8,334.5-736.3,620.2-862.3,620.2c-97.9,0-151.8-160.7-165.7-208.7c-1.2-0.7-2.4-1.5-3.6-2.3        c-25.4-15.8-55.2-36.6-90.7-65.7c-24.2-19.8-47.5-41.7-69.3-64.2c26.8,50.7,187.3,361.4,185,526.3c0,0-22.8,12.4-30.7,47.5        c-10,45,7.4,53.5,41.2,53.5c70,0,228.8,0,228.8,0s81,21.1,31.1-271.1c17.3,7.7,40.1,15.1,69.1,19.5        c41.2,6.2,95.3,6.6,164.8-6.1v170.5c-50,70,0,87.2,0,87.2s112.5,0,192.5,0c5.4,0,11-2.9,16.7-8.3h82c3.2,2.4,5.4,3.6,5.4,3.6        c331.7,15,488.3,5,628.3-190C2994.6,2960.9,2988.3,2820.2,2944.6,2697.8z"></path>					</g>				</g>			</g>		</g>		<g>			<g>				<g>					<g>						<path class="st2" d="M1758.7,2991.9c-0.4-2.6-0.8-5.3-1.3-8L1758.7,2991.9z"></path>					</g>				</g>			</g>		</g>		<g>			<g>				<g>					<g>						<path class="st2" d="M1303.2,2635.7c-2.4-4.6-3.8-7.1-3.8-7.1L1303.2,2635.7z"></path>					</g>				</g>			</g>		</g>		<g>			<g>				<g>					<g>						<path class="st9" d="M2944.6,2697.8c-24.4-68.1-60.4-130.5-100.1-178.3c0,0,46.8-6.2,54.7-54.6c8.8-53.5,77.5-90.9,95.8,90        C2998.7,2590.8,2986.8,2650.2,2944.6,2697.8z"></path>					</g>				</g>			</g>		</g>		<g>			<g>				<g>					<g>						<path class="st2" d="M2944.6,2697.8L2944.6,2697.8L2944.6,2697.8z"></path>					</g>				</g>			</g>		</g>		<g>			<g>				<g>					<g>						<path class="st10" d="M1992.5,3175.8c-50,70,0,87.2,0,87.2h-128.8c0,0-44-1.1-43-37.3c1.1-34.8,35.5-78.6,35.5-78.6        l-28.6-135.7c41.2,6.2,95.3,6.6,164.8-6.1V3175.8z"></path>					</g>				</g>			</g>		</g>		<g>			<g>				<g>					<g>						<path class="st6" d="M1407.5,1864.9c-112.3,0-201.6,43.4-181.6,128.4c19.2,81.7,129,152.2,199.2,154.9        c1.4,0.1,2.8,0.1,4.1,0.1c96.7,0,195-71,195-156.7C1624.2,1906,1519.8,1864.9,1407.5,1864.9z"></path>					</g>				</g>			</g>		</g>		<g>			<g>				<g>					<g>						<path class="st3" d="M1455,1946.6c0,23-38,41.7-84.9,41.7c-46.8,0-84.8-18.6-84.8-41.7c0-23,38-41.6,84.8-41.6        C1417,1905,1455,1923.6,1455,1946.6z"></path>					</g>				</g>			</g>		</g>		<g>			<g>				<g>					<g>						<path class="st2" d="M2396,2332.4c-0.4,4.7-0.8,7.1-0.8,7.1L2396,2332.4z"></path>					</g>				</g>			</g>		</g>		<g>			<g>				<g>					<g>						<path class="st2" d="M1509.2,1837v-6.2V1837z"></path>					</g>				</g>			</g>		</g>		<g class="st5">			<g>				<g>					<g>						<path class="st6" d="M2591.1,2256.1c-0.6,1.6-1.1,3.1-1.6,4.5c-59.3,171.1-138.6,301-228.1,401.9        c-159.6,180.2-351.2,267.8-518.4,331.9c-8.3-0.7-16.1-1.7-23.6-2.8l2.4,10.9c-21.1,7.9-41.8,15.6-61.9,23        c-16.2,6-32.1,11.9-47.6,17.7c-44.1,16.6-154.1,50.4-192.8-34.5c-33.3-72.9-78.8-125.4-114.9-158.6        c-50.1-122.9-107-228-110.1-233.7c21.7,21.4,45.4,43.1,70.8,63.9c35.4,29.1,65.2,49.8,90.6,65.6c0,0,54.4,211,169.4,211        c132.4,0,754.7-315.6,884.5-671.7c0.1-0.1,0.1-0.1,0.1-0.1c16.1-44.1,24.6-88.7,23.7-133.5c-0.5-31.1-5.7-62.3-16-93.3        c7.8-13,19.4-23.4,33.4-29.5c3.7-1.7,7.6-3,11.5-4h0.1c5.7-1.5,11.6-2.2,17.8-2.2c12.6,0,24.5,3.2,34.8,8.9        c3.4,1.8,6.7,3.9,9.7,6.3c-10,20.6-11.1,43.1,0.9,66.5c0.4,0.9,0.8,1.7,1.3,2.6c4.1,7.4,8.9,13.8,14.4,19        c-10.3,4.8-71.7,51.9-75.3,66.5C2561.9,2210.5,2571.1,2234.3,2591.1,2256.1z"></path>					</g>				</g>			</g>		</g>		<g class="st5">			<g>				<g>					<g>						<path class="st6" d="M2912.5,3058c-138.3,232.5-229.2,193.3-565,193.3c-13.9,0-21.4-5.6-24-14.2        c-6.6-21.4,16.9-61.5,50.4-82.9c20.3-12.9,13.5-21.8,13.5-21.8c-53.4-65.3-78.3-125.5-85.2-179.2c-6.4-49.1,2.3-92.8,18-130.2        c2.4,106.2,46.4,322.5,323.3,322.5c346.5,0,273-500.2,271.6-509.8C2971.9,2765.6,2989.3,2928.9,2912.5,3058z"></path>					</g>				</g>			</g>		</g>		<g class="st5">			<g>				<g>					<g>						<path class="st6" d="M2466.8,1864.9c13.2,57.5,160.3,242.1-155.1,567.7c-194.7,201-540,300-655,300s-155-20-465-240        c-9.3-6.6-18.2-13.3-26.7-19.9c-173.9-137.9-176.3-297.1-148.7-409.7c-13.1,235.8,217,452.4,539.6,462.1        C1555.9,2525,2576.8,2559.3,2466.8,1864.9z"></path>					</g>				</g>			</g>		</g>		<g class="st5">			<g>				<g>					<g>						<path class="st6" d="M2049.2,2423.7c-27.5,15.1-62.5-0.2-83.9-21.5c-21.4-21.4-108.6-77.9-108.6-77.9        c-182.5,148.3-357.5,39.2-357.5,39.2c-287.5,42.5-307.7-273-307.7-273c34.9,201.9,243.1,221.8,305.7,193.6        c30.6,23.2,74,40.1,135.4,40.1c89.2,0,152.2-41.8,196.5-96.4c105.2-6.9,137.3,118.1,218.5,109.3c17.7-1.9,33.8-17.1,44.9-38.2        C2113.4,2367.5,2071.6,2411.3,2049.2,2423.7z"></path>					</g>				</g>			</g>		</g>		<g class="st5">			<g>				<g>					<g>						<path class="st6" d="M1920.8,2037.9c-2.6,11.5-5.9,24.7-10.1,39.1c-14.6,50-39.8,113.3-81.8,165.2        c-44.3,54.6-107.2,96.4-196.5,96.4c-61.4,0-104.8-16.9-135.4-40.1c-62.5,28.2-270.4,8.4-305.6-193.2        c42.2,70.5,119.8,167.2,257.7,137.6c0,0,0,0,0.1,0C1453.7,2245.2,1751.3,2390.1,1920.8,2037.9z"></path>					</g>				</g>			</g>		</g>		<g class="st5">			<g>				<g>					<g>						<path class="st6" d="M1785,3175.4c-2.9,111.5-48.4,95.5-48.4,95.5s-158.7,0-228.8,0c-33.8,0-51.2-8.5-41.2-53.5        c7.8-35.1,30.7-47.5,30.7-47.5c0.9-66.1-24-154.6-55.9-240.2C1463.8,2985.1,1565.1,3198.6,1785,3175.4z"></path>					</g>				</g>			</g>		</g>		<g class="st5">			<g>				<g>					<g>						<path class="st6" d="M2248.4,3155.2c-14.1,39.2-28.4,70.2-42.2,87.7c-8,10.1-15.8,15.6-23.4,15.6c-80,0-192.5,0-192.5,0        s-50-17.2,0-87.2v-170.4c22.9-4.1,47.5-9.7,73.8-17C2064.1,2983.8,2079.9,3162.4,2248.4,3155.2z"></path>					</g>				</g>			</g>		</g>		<g class="st5">			<g>				<g>					<g>						<path class="st6" d="M3004.8,1960.1c-13.3,90.2-39.9,310.9-182.7,357.8c-151.9,49.9-260.6-55.6-247.6-109.5        c1-4.1,6.5-10.8,14.1-18.2C2644.3,2242.4,2841.6,2384.2,3004.8,1960.1z"></path>					</g>				</g>			</g>		</g>		<g class="st5">			<g>				<g>					<g>						<path class="st6" d="M2844.5,2144.9c-34.8,58.1-138,83.7-187.1,14.3c-1.2-1.1-2.5-2.2-3.7-3.4c-2.7-2.6-5.2-5.3-7.6-8.4        c-2.4-3.2-4.8-6.7-6.8-10.5c-0.5-0.8-0.9-1.7-1.3-2.6c-12-23.4-10.9-45.9-0.9-66.5c1.1-2.4,10-12.5,11.4-14.8        C2676.7,2165.7,2788.3,2160.8,2844.5,2144.9z"></path>					</g>				</g>			</g>		</g>		<g>			<g>				<g>					<g>						<path class="st2" d="M2298.9,3235.5h-5.4H2298.9z"></path>					</g>				</g>			</g>		</g>		<g>			<g>				<g>					<g>						<path class="st2" d="M2211.5,3235.5h-6.2H2211.5z"></path>					</g>				</g>			</g>		</g>		<g>			<g>				<g>					<g>						<path class="st3" d="M1711.5,2959.7c0,0,93.5,100.7,319.4,32.2c0,0-20.9-105-124.2-118        C1906.7,2873.9,1774,2933.8,1711.5,2959.7z"></path>					</g>				</g>			</g>		</g>		<g>			<g>				<g>					<g>						<path class="st3" d="M2276.9,3072c-23,80.1-47.5,147.7-70.7,177.1c-8,10.1-15.8,15.7-23.4,15.7c-80,0-192.5,0-192.5,0        s-45.2-15.6-6.6-77.4c2.2,1,4.4,2.1,6.6,3.2c0,0,60.2-79.2,193.5,0C2183.8,3190.6,2263.3,3118.4,2276.9,3072z"></path>					</g>				</g>			</g>		</g>		<g>			<g>				<g>					<g>						<path class="st3" d="M1725.3,3264.8c0,0-158.7,0-228.8,0c-33.9,0-51.2-8.5-41.2-53.5c3.8-17,11.1-28.6,17.6-36.1        c47-17.2,125.1-27.5,236.3,14.6c0,0,41.3-35.1,62.4-82.8C1786.1,3286.2,1725.3,3264.8,1725.3,3264.8z"></path>					</g>				</g>			</g>		</g>		<g>			<g>				<g>					<g>						<path class="st3" d="M1990.3,3264.8h-128.8c0,0-44.1-1.1-43-37.3c0.9-27.5,22.4-60.6,31.5-73.2c30-1.2,74.9,4.7,133.6,33.2        C1945.1,3249.2,1990.3,3264.8,1990.3,3264.8z"></path>					</g>				</g>			</g>		</g>		<g>			<g>				<g>					<g>						<path class="st3" d="M2722.6,3249.7c-84,24.7-193.4,13.6-372.2,13.6c-48,0-20.8-67,26.4-97c7.1-4.5,10.9-8.6,12.8-11.9        C2464,3138,2593.9,3134.3,2722.6,3249.7z"></path>					</g>				</g>			</g>		</g>		<g class="st7">			<g>				<g>					<g>						<path class="st3" d="M2460.9,2697.8c0,0-101.4,137.2-135.7,197.2C2325.2,2895,2330.9,2752.3,2460.9,2697.8z"></path>					</g>				</g>			</g>		</g>		<g class="st7">			<g>				<g>					<g>						<path class="st3" d="M2539.7,2207.8c0,0,132.7,155.6,218.8,233.7c86.1,78,156.9,196.1,156.9,196.1        S2605.2,2418.4,2539.7,2207.8z"></path>					</g>				</g>			</g>		</g>		<g class="st7">			<g>				<g>					<g>						<path class="st3" d="M2832.5,1704.9c0,0,0.1,58.4-75,82.6c-87.6,28.2-191,72.3-194.9,237.4c0,0-44.4-35-24.1-92.1        c20.3-57.1,57.2-139.6,155.1-167.7C2746.7,1749.8,2826.3,1733.7,2832.5,1704.9z"></path>					</g>				</g>			</g>		</g>		<g class="st7">			<g>				<g>					<g>						<path class="st3" d="M3004.3,1936.6c0,0-1.8,69.9-226.8,86.1c0,0-163.8,9.9-133.8,114.9s-2.2,7.3-2.2,7.3        s-86.5-126.1,127.2-177.3C2768.8,1967.5,2963.6,1971.9,3004.3,1936.6z"></path>					</g>				</g>			</g>		</g>		<g class="st7">			<g>				<g>					<g>						<path class="st3" d="M1233.8,825.1c0,0-255.9-21.2-193.5,416.9C1040.2,1242,955,860.1,1233.8,825.1z"></path>					</g>				</g>			</g>		</g>		<g class="st7">			<g>				<g>					<g>						<path class="st3" d="M1937.5,1200.7c0,0-7.6-468,233.7-453.1c0,0-181.4-79.4-233.7,149.3        C1895,1082.5,1937.5,1200.7,1937.5,1200.7z"></path>					</g>				</g>			</g>		</g>		<g class="st7">			<g>				<g>					<g>						<path class="st3" d="M1917.3,1202.2c-259.7-6.7-533.7,79.4-642,232.3c-127.4,179.9-137.6,314.6-139.2,319.3        c5.3-26.6,9.4-58.2,11.4-96.6c1.3-25.9,4.2-49.8,8.2-71.7c14.5-81.1,43.4-135.3,65.1-166.1c0,0,0,0,0,0        c15.2-21.8,26.7-32.1,26.7-32.1c53-63.2,118.4-106.8,187.4-136.6c51-22,104.1-36.5,155.5-45.8        C1759.6,1174.6,1911.3,1201.2,1917.3,1202.2z"></path>					</g>				</g>			</g>		</g>		<g class="st7">			<g>				<g>					<g>						<path class="st3" d="M2496.9,2197c-214.4,486.3-785.4,570.9-872.7,570.9c-182.9,0-462.4-295.2-462.4-295.2        c8.5,6.7,17.3,13.3,26.6,19.9c310,220,350,240,465,240s445-115,655-300C2411.4,2341.9,2469.8,2268.1,2496.9,2197z"></path>					</g>				</g>			</g>		</g>		<g>			<g>				<g>					<g>						<path class="st6" d="M2742.8,2356.3c-64.5,0-116.9-25.2-149.2-55.1c-31.7-29.3-46.6-63.8-39.7-92.1        c4.5-18.6,41.5-48.6,65.7-66.1c-1-1.6-2-3.3-2.9-5l-0.3-0.5c-0.5-0.9-1-1.9-1.5-2.8c-14-27.5-14.3-56.6-0.9-84.2        c33.8-69.2,146.3-113,230.8-110.5c0.5,0,1,0,1.5,0l1.1,0c92.7,2.5,124.8-16.7,127.1-18.2c9.5-7.5,24.2-13,37-5.6        c18.1,10.5,14.4,34.7,13.1,42.6c-0.9,6-1.9,12.8-3,20.3c-14.8,102-45.6,314.2-194.7,363.1        C2797.4,2352.1,2769,2356.3,2742.8,2356.3z M2592.5,2219.8c-1.8,11.2,6.1,31.7,28.2,52.1c37.1,34.3,107.6,60.9,193.9,32.5        c125.6-41.3,154-236.9,167.6-330.9c0.6-4.1,1.1-7.9,1.7-11.5c-19.9,8.6-61.2,20.2-137.2,18.1c-0.5,0-1,0-1.5,0l-1.2,0        c-77.8-2.3-170.3,39.6-193.9,88c-8,16.3-7.7,32.2,0.7,48.6l0.3,0.6c0.2,0.5,0.5,1,0.8,1.5c3,5.4,6.6,10.2,10.6,14.1l21.1,20.1        l-26.3,12.4C2646.9,2170.8,2600.2,2207.8,2592.5,2219.8z"></path>					</g>				</g>			</g>		</g>		<g>			<g>				<g>					<g>						<path class="st6" d="M2839.8,2147.3c-8.3,17.2-20.7,32.7-36.5,45.3c-15.8,12.4-35.2,21.8-56.7,24.7        c-5.4,0.4-10.8,1.3-16.3,1.1l-8.3-0.4l-4.2-0.2c-1.4-0.2-2.7-0.5-4.1-0.7c-5.4-1.1-11.1-1.9-16.2-4c-5.2-2-10.7-3.6-15.4-6.5        c-19.7-10.3-35.8-26.2-46.2-44.2c-5.5-9.6-2.2-21.9,7.4-27.4c8.2-4.7,18.3-3,24.5,3.5l0.7,0.8c11.1,11.6,21.8,22,34.3,29.2        c12.3,7.3,26.1,12.2,41.3,12.9c15.2,0.8,31.3-2.5,46.7-9.1c15.6-6.5,30.4-16.3,44.3-28.3l0,0c1.2-1.1,3.1-0.9,4.1,0.3        C2840.2,2145,2840.3,2146.3,2839.8,2147.3z"></path>					</g>				</g>			</g>		</g>		<g>			<g>				<g>					<g>						<path class="st6" d="M2569.7,2066.3c-2.7,0-5.4-0.5-8-1.7l-0.5-0.2c-0.9-0.4-1.7-0.8-2.6-1.2c-35.7-16.6-52.6-55.7-46.5-107.5        c9.9-83.7,78.6-188.6,155.6-203.7c89-17.5,135.6-55.3,140.8-59.8c7-7.2,18.2-13.3,30.2-9.8c7.6,2.2,17.3,8.7,20.2,26.9        c0.6,3.7,1.3,7.9,2.1,12.6c8.6,51.4,26.5,158.4,5.4,243c-2.7,10.7-13.5,17.2-24.3,14.5c-10.7-2.7-17.2-13.5-14.5-24.3        c18.7-74.6,3-172.9-5.4-223c-22.1,15.6-70.5,44.1-146.6,59.1c-58.7,11.6-115.6,102-123.6,169.2c-2.9,24.1-1.1,55.1,23.7,66.6        l2.1,1c10.1,4.4,14.7,16.2,10.3,26.4C2584.8,2061.9,2577.4,2066.3,2569.7,2066.3z"></path>					</g>				</g>			</g>		</g>		<g>			<g>				<g>					<g>						<path class="st6" d="M2719.4,1876c-10.2,14.2-17.4,29-22,44.7c-4.7,15.6-7.3,31.9-9.8,48.8c-2.7,16.9-4.4,34.7-11.2,53.8        c-1.7,4.8-3.8,9.6-6.5,14.5c-1.2,2.4-2.8,4.9-4.4,7.3c-1.7,2.4-3.5,4.7-5.5,7c-7.9,9.2-19.4,16.6-31,19.6        c-10.7,2.7-21.6-3.8-24.3-14.5c-2.2-8.6,1.6-17.3,8.7-21.8l2.1-1.3c4.7-3,8-5.9,11.3-10c3.2-4.2,6.3-9.9,9.1-16.5        c5.7-13.4,10.8-30,16.7-46.8c5.9-16.9,13.1-34.3,23.2-50.2c10.2-15.9,23.8-29.8,39.7-38.8c1.4-0.8,3.2-0.3,4,1.1        C2720.2,1873.9,2720.1,1875.1,2719.4,1876L2719.4,1876z"></path>					</g>				</g>			</g>		</g>		<g>			<g>				<g>					<g>						<path class="st6" d="M2587.5,2210c-51.2,0-92.9-41.7-92.9-92.9c0-36.8,21.8-70.3,55.5-85.1c11.8-5.2,24.4-7.9,37.5-7.9        c20.8,0,40.4,6.7,56.8,19.4c8.7,6.8,10.3,19.3,3.5,28.1c-6.8,8.7-19.3,10.3-28.1,3.5c-9.3-7.2-20.4-11-32.2-11        c-7.4,0-14.6,1.5-21.3,4.5c-19.3,8.5-31.7,27.5-31.7,48.5c0,29.2,23.8,52.9,52.9,52.9c11,0,20,9,20,20        C2607.5,2201.1,2598.6,2210,2587.5,2210z"></path>					</g>				</g>			</g>		</g>		<g>			<g>				<g>					<g>						<path class="st6" d="M1647.5,2745c-120.7,0-165.3-22.8-476.6-243.7c-128.4-91.2-194.7-204.2-196.8-336.1        c-1.7-105.8,38.8-195,58.3-237.8c2.7-6,5-11,6.7-15c7.4-17.8,17.3-32.4,27.7-47.8c26.2-38.6,58.7-86.7,65.8-220.6        c9.8-186.4,93.8-271.8,105.5-282.8c94.9-112.7,244.1-181.4,431.5-198.7c102.7-9.5,189.8-1.4,231.1,4        c-13.5-192.1,14.3-327.3,82.9-402.1c49.3-53.7,101.8-54.3,104-54.3c116.2,0.1,207.3,80.6,271,239.1        c49.4,123.1,69,262.7,77.3,322.4l1.5,10.7c4.9,34.3,8.6,96.8,13.2,176c9.6,162.9,22.7,385.9,56.1,496        c49.3,162.6,33.4,288.2-190.9,485.8C2107.6,2623.4,1775.7,2745,1647.5,2745z M1767.3,1198.6c-146.8,0-366,30.1-499.4,189.3        l-2,2.1c-0.8,0.7-83.9,77.9-93.3,256.1c-7.6,145-43.7,198.2-72.6,240.9c-9.7,14.3-18,26.6-23.9,40.7        c-1.8,4.3-4.3,9.7-7.2,16.2c-37,81.5-149.8,329.6,125.3,524.8c314.4,223.2,346.6,236.3,453.4,236.3c108.2,0,434-112,641.8-295        c209.3-184.4,224.5-294.3,179.1-444.2c-34.8-114.7-48-340.4-57.7-505.3c-4.4-75.1-8.2-140-12.9-172.7l-1.5-10.8        c-49.1-349.6-152.9-526.9-308.7-527.1c-1.3,0-38.6,1.3-75.7,42.8c-43.1,48.1-90.2,155.8-69.3,395.5l2.3,26.1l-25.8-4.7        C1917.3,1209.4,1855.3,1198.6,1767.3,1198.6z"></path>					</g>				</g>			</g>		</g>		<g>			<g>				<g>					<g>						<path class="st6" d="M1160.7,1593.3c-7.8,0-15.3-4.6-18.5-12.3c-9.5-22.9-231.3-563.9-20.9-741.3        c40.2-33.9,85.5-46.1,134.5-36.2c179.8,36.2,350.3,366.1,357.4,380.1c5,9.8,1.1,21.9-8.7,26.9c-9.8,5-21.9,1.1-26.9-8.7        c-1.7-3.3-168.8-326.7-329.7-359.1c-37-7.4-69.9,1.6-100.8,27.6c-188.2,158.6,29.8,690,32.1,695.3        c4.2,10.2-0.6,21.9-10.8,26.1C1165.9,1592.8,1163.3,1593.3,1160.7,1593.3z"></path>					</g>				</g>			</g>		</g>		<g>			<g>				<g>					<g>						<path class="st6" d="M1440.8,2313.5c-42.5,0-94.4-10.4-142.9-38.9c-52.1-30.6-116.1-92.9-125.3-215.5        c-6-79.2,12.1-141.3,53.8-184.6c60.6-63,148.6-62.2,156.4-61.9h203c11,0,20,9,20,20s-9,20-20,20l-204.1,0        c-0.7-0.1-77.4-1.8-126.8,49.9c-33.3,34.8-47.6,86.4-42.5,153.6c7.9,105.4,61.9,158.3,105.7,184        c65.9,38.8,144.6,39.3,176.1,24.7c10-4.6,21.9-0.2,26.5,9.8c4.6,10,0.2,21.9-9.8,26.5        C1495.1,2308.5,1470.2,2313.5,1440.8,2313.5z"></path>					</g>				</g>			</g>		</g>		<g>			<g>				<g>					<g>						<path class="st6" d="M1637.5,2343.4c-213,0-228.2-190.1-228.3-192c-0.7-11,7.6-20.6,18.6-21.3c11.1-0.7,20.5,7.6,21.3,18.6        c0.5,6.4,13.4,154.7,188.4,154.7c236.1,0,276.4-325.7,276.8-329c1.3-11,11.2-18.9,22.2-17.6c11,1.3,18.8,11.2,17.6,22.2        c-0.4,3.7-10.9,91.1-54,179.8C1841.5,2279.5,1750.7,2343.4,1637.5,2343.4z"></path>					</g>				</g>			</g>		</g>		<g>			<g>				<g>					<g>						<path class="st6" d="M2044.2,2356.7c-41.9,0-71.7-28-100.6-55.1c-31.6-29.7-61.6-57.8-108.3-54.8        c-11.1,0.7-20.5-7.6-21.3-18.7c-0.7-11,7.6-20.5,18.7-21.3c64.2-4.2,105.2,34.5,138.3,65.5c31.1,29.2,51.5,47,79.4,43.9        c10.3-1.1,21.9-12.6,30.5-29.9c13-26.3,18.7-67.9,0.8-97.3c-44.8-73.6-169.8-107.8-171.1-108.2c-10.7-2.9-17-13.8-14.1-24.5        c2.9-10.7,13.8-17,24.5-14.2c5.8,1.5,141.8,38.7,194.9,126c25.9,42.6,19.1,98.9,0.9,135.8c-15,30.4-37.6,49.3-62.1,51.9        C2051.1,2356.5,2047.6,2356.7,2044.2,2356.7z"></path>					</g>				</g>			</g>		</g>		<g>			<g>				<g>					<g>						<path class="st6" d="M2289.2,1443.4c-6.9,0-13.5-3.6-17.2-9.8c-73.6-123.7-210.1-176-211.5-176.5c-7.5-2.8-12.6-9.8-13-17.8        c-1.2-27.2-10.2-267.8,53.1-328.2c12.5-11.9,27.6-17.4,43.7-15.9c33.1,3.1,77.2,36.9,124.8,273.3        c25.3,125.4,39.7,251.5,39.8,252.7c1.1,9.4-4.6,18.2-13.5,21.2C2293.5,1443,2291.3,1443.4,2289.2,1443.4z M2087,1224.8        c30,13.1,107.5,51.8,172.3,124.4c-6.7-47-16.6-110.2-29.3-173.1c-47.3-234.6-87.6-241-89.3-241.1c-3.2-0.3-7.2,0.1-12.4,5        C2092.1,974.6,2083.9,1127.7,2087,1224.8z"></path>					</g>				</g>			</g>		</g>		<g>			<g>				<g>					<g>						<path class="st6" d="M1225.8,1427.1c-9,0-17.2-6.2-19.4-15.3c-0.8-3.4-20.4-85.2-31-173.8c-15.5-129.6-4.3-200.7,35.5-223.7        c14.1-8.1,30.1-9.9,47.6-5.2c83.3,22.4,187.2,199.1,198.8,219.2c5.5,9.6,2.2,21.8-7.3,27.3c-9.6,5.5-21.8,2.2-27.3-7.3        c-0.4-0.6-36-62.2-80-117.4c-58.9-74-96.4-90.8-111.8-81.9c-38.3,22.1-22.4,200.7,14.3,353.4c2.6,10.7-4,21.5-14.8,24.1        C1228.9,1426.9,1227.3,1427.1,1225.8,1427.1z"></path>					</g>				</g>			</g>		</g>		<g>			<g>				<g>					<g>						<path class="st6" d="M1476,2754.7c12.3,5.3,23.6,12,35.2,18.8c11.5,6.8,22.8,14.5,34.1,22.6c11.3,8.1,22.7,17.3,32.6,28        c9.8,10.8,18,23,23.3,36.1c0.5,1.3-0.1,2.8-1.4,3.4c-0.9,0.4-1.9,0.2-2.6-0.4c-10.5-8.9-21.1-16.6-32.4-22.8        c-11.2-6.4-22.9-11.5-35.1-16.8c-12.2-5.3-24.8-10.4-37-16.8c-12.2-6.4-24.2-13.4-35-22.2c-7.6-6.2-8.7-17.3-2.6-24.8        c5.1-6.3,13.6-8.1,20.7-5.1L1476,2754.7z"></path>					</g>				</g>			</g>		</g>		<g>			<g>				<g>					<g>						<path class="st6" d="M1460.8,2785.9c-3.6,0-7.3-1-10.6-3.1c-29.9-18.9-59.5-40.3-90.3-65.6c-130.8-107.3-217-235.6-220.6-241        c-6.1-9.2-3.6-21.6,5.5-27.7c9.2-6.1,21.6-3.7,27.7,5.5c0.9,1.3,86.7,128.9,212.7,232.3c29.5,24.2,57.8,44.8,86.3,62.7        c9.3,5.9,12.1,18.2,6.3,27.6C1473.9,2782.6,1467.4,2785.9,1460.8,2785.9z"></path>					</g>				</g>			</g>		</g>		<g>			<g>				<g>					<g>						<path class="st6" d="M1632.5,2998.4c-129,0-186.4-216.8-188.7-226c-2.8-10.7,3.7-21.6,14.4-24.4c10.7-2.8,21.6,3.7,24.4,14.4        c14.1,54.5,68.6,196,150,196c53.9,0,211.2-62.3,381.2-166.6c116.6-71.6,328.8-218.5,439.1-398.9        c77.3-126.5,88.8-244.8,34.1-351.7c-5-9.8-1.1-21.9,8.7-26.9c9.8-5,21.9-1.1,26.9,8.7c61.5,120.1,49.5,251.6-35.6,390.8        c-114.7,187.5-332.6,338.7-452.3,412.1C1871.7,2925.8,1702.6,2998.4,1632.5,2998.4z"></path>					</g>				</g>			</g>		</g>		<g>			<g>				<g>					<g>						<path class="st6" d="M2532.7,2314.7c-4.3,8.5-8.4,15.8-12.9,23.3c-4.5,7.4-9.1,14.7-13.9,22c-9.5,14.5-19.4,28.5-29.9,42.2        c-20.9,27.4-43.3,53.5-67.1,78.2c-47.5,49.6-100.2,93.9-156.4,132.9c-28.1,19.5-56.9,38-86.6,54.8        c-14.6,8.8-29.9,16.5-44.9,24.4c-7.6,3.9-15.3,7.5-23,11.2c-7.7,3.7-15.3,7.5-23.1,10.9c-61.9,28.2-126.2,50.9-191.7,67.9        c-1.3,0.3-2.7-0.5-3-1.8c-0.3-1.3,0.4-2.5,1.6-3c63.4-23,124.9-50.2,184-81.5c7.5-3.8,14.7-8,22-12.1        c7.3-4.2,14.6-8.2,21.8-12.4l21.4-13c7.2-4.2,14.2-8.7,21.2-13.2c28.2-17.7,55.4-37.1,81.9-57.2c26.6-20.1,51.8-41.8,76.4-64        c24.6-22.3,48.2-45.6,70.8-69.8c22.6-24.2,44.1-49.4,64.5-75.4c10-13.1,20.1-26.2,29.5-39.7c4.7-6.7,9.3-13.5,13.7-20.4        c4.3-6.8,9-13.9,12.6-20.3l0.3-0.5c4.8-8.4,15.5-11.3,23.9-6.5C2534,2296.2,2536.9,2306.4,2532.7,2314.7z"></path>					</g>				</g>			</g>		</g>		<g>			<g>				<g>					<g>						<path class="st6" d="M2562.8,3285.8c-26.2,0-54.4-0.5-85-1.1c-37.1-0.7-79.2-1.4-125.3-1.4c-21.9,0-38.1-10.8-43.3-28.9        c-9.9-34,22.5-81.8,59-105c0.6-0.4,1.2-0.8,1.7-1.1c-67.3-85.7-94.7-171.9-81.5-256.3c21.8-138.8,145.6-220.4,150.8-223.8        c9.3-6,21.7-3.3,27.7,5.9c6,9.3,3.3,21.7-5.9,27.7c-1.1,0.7-114.3,75.6-133.1,196.7c-11.7,75.5,15.2,154,80.1,233.3l0.4,0.6        c4.3,5.7,6,13.6,4.7,21.2c-2,10.9-9.8,20.9-23.4,29.5c-29.3,18.7-44.5,50.9-42.2,59.6c0.8,0.3,2.4,0.6,5.1,0.6        c46.5,0,88.7,0.8,126,1.4c237,4.2,308.5,5.5,421.8-185c117.8-198,2.7-479.6-125.1-579c-135.4-105.3-247.2-248.7-251.9-254.7        c-6.8-8.7-5.2-21.3,3.5-28.1c8.7-6.8,21.3-5.2,28.1,3.5c1.1,1.4,113.5,145.5,244.9,247.7c72.9,56.7,137.5,162.1,168.7,275        c36.4,131.9,24.4,258.3-33.7,356C2825.8,3263.3,2738.2,3285.8,2562.8,3285.8z"></path>					</g>				</g>			</g>		</g>		<g>			<g>				<g>					<g>						<path class="st6" d="M2185,3284.8h-195.9l-3.2-1.1c-2.5-0.9-24.9-9.2-33-34.5c-7-21.9-0.4-48.1,19.5-77.9v-164.2        c0-11,9-20,20-20c11,0,20,9,20,20v176.9l-3.7,5.2c-20.3,28.4-19.2,42.7-17.8,47.5c1.2,4.2,4.1,6.8,6.2,8.2h187.1        c5.1-2.2,40.3-26.5,103.4-284.4c2.6-10.7,13.4-17.3,24.2-14.7c10.7,2.6,17.3,13.5,14.7,24.2        C2258.9,3246.6,2218.5,3284.8,2185,3284.8z M2184.1,3244.9L2184.1,3244.9L2184.1,3244.9z"></path>					</g>				</g>			</g>		</g>		<g>			<g>				<g>					<g>						<path class="st6" d="M2348.2,2811.1c-1.3,0-2.7-0.1-4.1-0.4c-10.8-2.2-17.8-12.8-15.5-23.6c17-82.3,27.8-151.9,27.9-152.6        c1.7-10.9,12-18.4,22.8-16.7c10.9,1.7,18.4,11.9,16.7,22.8c-0.1,0.7-11.1,71.3-28.3,154.6        C2365.9,2804.6,2357.5,2811.1,2348.2,2811.1z"></path>					</g>				</g>			</g>		</g>		<g>			<g>				<g>					<g>						<path class="st6" d="M1733.2,3285.6c-3,0-5.7-0.3-8.2-0.8h-226.2c-19.2,0-40.6-2.2-53.8-18.7c-14.1-17.6-10.7-42.2-6.9-59.1        c6.2-27.9,20.2-44.5,30.1-53.1c-4-165.4-162.9-467-181.3-501.4c-5.2-9.7-1.5-21.9,8.2-27.1c9.8-5.2,21.9-1.5,27.1,8.2        c31.5,58.9,188.4,361.1,186.1,530.5l-0.2,11.7l-10.3,5.6c-0.3,0.2-15.1,9.3-20.6,34.3c-4.6,20.6-1.1,25.2-0.9,25.4        c0.5,0.6,3.9,3.7,22.6,3.7h233.8l1.1,0.8c1-0.1,2.7-0.6,5-2.9c8.6-8.7,34.2-52.2,0.3-245.6c-1.9-10.9,5.4-21.2,16.2-23.2        c10.9-1.9,21.2,5.4,23.2,16.2c27.9,159,23,251.9-14.8,284C1753.5,3282.6,1742.5,3285.6,1733.2,3285.6z M1488.2,3163.8        L1488.2,3163.8L1488.2,3163.8z"></path>					</g>				</g>			</g>		</g>		<g>			<g>				<g>					<g>						<path class="st6" d="M1887.5,3037.3c-138.9,0-188.8-59.7-191.6-63.1c-6.9-8.6-5.5-21.2,3.1-28.1c8.6-6.9,21-5.5,28,2.9        c1.6,1.8,83.5,92.7,340.1,20.1c10.6-3,21.7,3.2,24.7,13.8c3,10.6-3.2,21.7-13.8,24.7        C2001.2,3029.3,1938.4,3037.3,1887.5,3037.3z"></path>					</g>				</g>			</g>		</g>		<g>			<g>				<g>					<g>						<path class="st6" d="M2944.6,2719.6c-4.7,0-9.5-1.7-13.3-5c-8.3-7.3-9-20-1.7-28.2c36.2-40.9,49-93.6,45.5-127.7        c-9.7-95.6-33-115.9-38.8-116c0,0-0.1,0-0.1,0c-4.6,0-14.6,10.2-17.4,27.2c-8.2,49.8-50.5,68.3-71.8,71.2        c-10.9,1.4-21-6.2-22.5-17.2c-1.5-10.9,6.1-20.9,17-22.5c3.4-0.5,32.5-6,37.8-38c5.8-35.5,30.7-61.7,58.2-60.8        c28.3,0.9,64.7,27.9,77.3,152c4,39.7-8.1,104.9-55.4,158.2C2955.6,2717.4,2950.1,2719.6,2944.6,2719.6z"></path>					</g>				</g>			</g>		</g>		<g>			<g>				<g>					<g>						<path class="st6" d="M1992.5,3284.8h-128.8c-3.6-0.1-31.4-1.3-49.1-20c-9.5-10-14.2-23.1-13.8-37.9c1-32,23-67.1,34-82.6        l-27.7-127c-2.4-10.8,4.5-21.5,15.3-23.8c10.8-2.3,21.5,4.5,23.8,15.3l31.7,145l-5.8,7.4c-8.4,10.8-30.5,43.9-31.2,66.9        c-0.4,14.8,18.8,16.5,23.4,16.7h128.3c11,0,20,9,20,20C2012.5,3275.8,2003.6,3284.8,1992.5,3284.8z"></path>					</g>				</g>			</g>		</g>		<g>			<g>				<g>					<g>						<path class="st6" d="M1429.2,2170c-80.5,0-201.6-80.2-222.8-170.4c-7.9-33.6-1.6-64.5,18.1-89.4c31.9-40.3,98.7-63.5,183-63.5        c117.8,0,236.7,45.3,236.7,146.7C1644.2,2094.5,1530.7,2170,1429.2,2170z M1407.5,1886.7c-71,0-127.7,18.1-151.7,48.3        c-12.2,15.5-15.7,33.6-10.5,55.4c16.6,70.6,119.3,139.6,183.9,139.6c90,0,175-66.4,175-136.7        C1604.2,1919.7,1505.4,1886.7,1407.5,1886.7z"></path>					</g>				</g>			</g>		</g>		<g>			<g>				<g>					<g>						<path class="st6" d="M2328.5,3269.1h-120.1c-11,0-20-9-20-20c0-11,9-20,20-20h120.1c11,0,20,9,20,20        C2348.5,3260.1,2339.6,3269.1,2328.5,3269.1z"></path>					</g>				</g>			</g>		</g>		<g class="st5">			<g>				<g>					<g>						<path class="st6" d="M1992.5,3181.1c-50,70,0,87.2,0,87.2h-128.8c0,0-44.1-1.1-42.9-37.3c1-34.9,35.4-78.6,35.4-78.6        l-29.7-135.8c41.4,6.5,95.8,7,165.9-5.9V3181.1z"></path>					</g>				</g>			</g>		</g>		<g class="st5">			<g>				<g>					<g>						<path class="st6" d="M2378,3174.1c-33.6,21.4-57,61.5-50.4,82.9h-120.1c33.1-41.9,68.8-161.4,98.8-283.9        c6.9,53.8,31.8,113.9,85.2,179.3C2391.6,3152.3,2398.3,3161.2,2378,3174.1z"></path>					</g>				</g>			</g>		</g>		<g class="st5">			<g>				<g>					<g>						<path class="st11" d="M2944.8,2714.3c-16.4-53.8-40-104.2-67.8-147.4c56.9,12.6,93.2-23.1,112.3-51.5        c2.2,12.3,4.1,26,5.6,41.2C2998.7,2592.6,2987,2666.7,2944.8,2714.3z"></path>					</g>				</g>			</g>		</g>		<g class="st5">			<g>				<g>					<g>						<path class="st6" d="M2115.6,2748.1c-200.1,137.6-409.7,227.1-480.3,227.1c-115,0-169.4-211-169.4-211c-1.6-1-3.3-2.1-5.1-3.2        C1622,2818.3,1555,2985,2115.6,2748.1z"></path>					</g>				</g>			</g>		</g>		<g>			<g>				<g>					<g>						<g>							<path class="st6" d="M1426.5,1685.1c2.2,59.6-26.7,109.1-64.6,110.5c-37.8,1.4-70.2-45.8-72.4-105.5         c-2.2-59.6,26.7-109.1,64.5-110.5C1391.9,1578.3,1424.4,1625.5,1426.5,1685.1z"></path>						</g>					</g>				</g>			</g>			<g>				<g>					<g>						<g>															<ellipse transform="matrix(0.9993 -3.644584e-02 3.644584e-02 0.9993 -60.1809 51.2447)" class="st3" cx="1375.5" cy="1676.3" rx="17.9" ry="47.1"></ellipse>						</g>					</g>				</g>			</g>		</g>		<g>			<g>				<g>					<g>						<g>							<path class="st6" d="M1951.9,1685.1c2.2,59.6-26.7,109.1-64.6,110.5c-37.8,1.4-70.2-45.8-72.4-105.5         c-2.2-59.6,26.7-109.1,64.5-110.5C1917.3,1578.3,1949.8,1625.5,1951.9,1685.1z"></path>						</g>					</g>				</g>			</g>			<g>				<g>					<g>						<g>															<ellipse transform="matrix(0.9993 -3.644584e-02 3.644584e-02 0.9993 -59.8319 70.393)" class="st3" cx="1900.9" cy="1676.3" rx="17.9" ry="47.1"></ellipse>						</g>					</g>				</g>			</g>		</g>		<g>			<g>				<g>					<g>						<path class="st6" d="M1895.5,2117.2c7.3,1.1,13.5,2.7,19.9,4.9c6.4,2,12.5,4.6,18.5,7.4c12.1,5.6,23.4,12.8,34.3,20.7        c10.8,8,20.8,17.1,29.8,27.1c8.8,10.2,16.4,21.6,21.5,33.8c0.5,1.3-0.1,2.8-1.4,3.4c-0.9,0.4-1.8,0.2-2.6-0.3l-0.1-0.1        c-10.2-7.9-20.2-14.7-30.7-20.7c-10.6-5.9-21.4-11.1-32.4-15.8c-11-4.7-22.3-8.7-33.4-13c-5.5-2.2-11.1-4.3-16.6-6.5        c-5.4-2.2-11.2-4.5-16-6.9l-1.3-0.6c-8.7-4.3-12.2-14.9-7.9-23.6C1880.6,2119.8,1888.2,2116.1,1895.5,2117.2z"></path>					</g>				</g>			</g>		</g>		<g>			<g>				<g>					<g>						<path class="st6" d="M1480.8,2476.1c0.9,0,1.8,0.2,2.7,0.4c1,0.3,1,0.3,1.6,0.5c0.9,0.4,1.8,0.7,2.4,1c1.5,0.7,2.8,1.3,4,1.9        l7.3,3.9c4.7,2.7,9.4,5.2,14,7.6c9.3,4.9,18.5,9.3,27.8,13.1c18.6,7.6,37.7,12.3,57,13.2c9.7,0.5,19.4-0.2,29-1.8        c9.7-1.4,19.3-4,28.9-7.3c19.2-6.4,37.8-16,56.7-26.6l0,0c2.4-1.4,5.5-0.5,6.9,1.9c1.1,1.9,0.8,4.2-0.6,5.8        c-14.6,16.9-32.7,31.1-53.4,41.7c-2.5,1.4-5.2,2.6-7.9,3.7c-2.7,1.1-5.4,2.3-8.1,3.4c-5.6,1.8-11.1,3.8-17,5.1        c-11.5,2.7-23.5,4.2-35.5,3.9c-24-0.4-47.7-7.4-67.9-19c-10.1-5.8-19.5-12.6-27.9-20.1c-4.2-3.8-8.2-7.8-12.1-11.8l-5.5-6        l-2.5-2.8l-1-1.1c0-0.1-0.5-0.5-0.2-0.4c0.3,0,0.5,0,0.8-0.2c-2.8-0.1-5-2.3-4.9-5.1C1475.8,2478.3,1478,2476.1,1480.8,2476.1        z"></path>					</g>				</g>			</g>		</g>	</g></g></svg>